# xmcd CD database file
#
# Track frame offsets:
#	150
#	28712
#	48150
#	75095
#	102045
#	127435
#	143855
#	163395
#	189242
#	211182
#
# Disc length: 2987 seconds
#
# Revision: 3
# Processed by: cddbd v1.5.1PL0 Copyright (c) Steve Scherf et al.
# Submitted via: CDex 1.51
#
DISCID=810ba90a
DTITLE=Lambchop - Nixon
DYEAR=2000
DGENRE=Country
TTITLE0=The Old Gold Shoe
TTITLE1=Grumpus
TTITLE2=You Masculine You
TTITLE3=Up With People
TTITLE4=Nashville Parent
TTITLE5=What Else Could It Be
TTITLE6=The Distance From Her To There
TTITLE7=The Book I Haven't Read
TTITLE8=The Petrified Florist
TTITLE9=The Butcher Boy
EXTD=YEAR: 2000
EXTT0=
EXTT1=
EXTT2=
EXTT3=
EXTT4=
EXTT5=
EXTT6=
EXTT7=
EXTT8=
EXTT9=
PLAYORDER=
